<svg width="7" height="9" viewBox="0 0 7 9" fill="none" xmlns="http://www.w3.org/2000/svg">
<g clip-path="url(#clip0_1_188)">
<path d="M4.93999 9C4.74999 9 4.54999 8.97 4.33999 8.92C3.14999 8.6 1.83999 7.45 0.989994 5.99C-0.290006 3.77 -0.330006 1.2 0.899994 0.489997C1.28999 0.269997 1.60999 0.109997 1.85999 0.0299969C2.13999 -0.0600031 2.42999 0.0499969 2.57999 0.299997L3.28999 1.51C3.45999 1.79 3.36999 2.15 3.09999 2.34C2.57999 2.68 2.50999 2.85 2.49999 2.88C2.37999 3.33 2.48999 4.23 2.87999 4.9C3.26999 5.57 3.98999 6.11 4.43999 6.23C4.46999 6.23 4.64999 6.26 5.20999 5.99C5.49999 5.84 5.85999 5.95 6.01999 6.24L6.70999 7.46C6.84999 7.71 6.79999 8.02 6.58999 8.22C6.38999 8.4 6.09999 8.6 5.70999 8.82C5.48999 8.95 5.22999 9.01 4.93999 9.01" fill="black"/>
</g>
<defs>
<clipPath id="clip0_1_188">
<rect width="6.8" height="9" fill="white"/>
</clipPath>
</defs>
</svg>
