<svg width="10" height="9" viewBox="0 0 10 9" fill="none" xmlns="http://www.w3.org/2000/svg">
<g clip-path="url(#clip0_1_182)">
<path d="M9.95999 3.92001C9.79999 3.79001 9.63999 3.66001 9.46999 3.53001C9.07999 3.22001 8.69999 2.92001 8.30999 2.61001C7.83999 2.24001 7.36999 1.86001 6.89999 1.49001C6.48999 1.17001 6.08999 0.840012 5.68999 0.520012C5.48999 0.360012 5.29999 0.210012 5.09999 0.0500122C5.03999 1.22078e-05 4.96999 1.22078e-05 4.90999 0.0500122C4.74999 0.180012 4.58999 0.310012 4.42999 0.440012C4.03999 0.750012 3.65999 1.06001 3.26999 1.36001C2.79999 1.73001 2.32999 2.11001 1.85999 2.48001C1.44999 2.80001 1.04999 3.13001 0.649989 3.45001C0.519989 3.56001 0.379989 3.66001 0.249989 3.77001C0.189989 3.82001 0.119989 3.87001 0.059989 3.92001C0.019989 3.95001 0.00998901 4.02001 0.029989 4.07001C0.049989 4.12001 0.099989 4.15001 0.159989 4.15001H0.999989V8.26001C0.999989 8.46001 0.999989 8.65001 0.999989 8.85001C0.999989 8.93001 1.05999 9.00001 1.13999 9.00001H3.76999C3.83999 9.00001 3.90999 8.94001 3.90999 8.86001C3.90999 8.53001 3.90999 8.20001 3.90999 7.88001C3.90999 7.36001 3.90999 6.84001 3.90999 6.31001C3.90999 6.24001 3.90999 6.16001 3.90999 6.09001H6.12999C6.12999 6.37001 6.12999 6.65001 6.12999 6.94001C6.12999 7.46001 6.12999 7.98001 6.12999 8.51001C6.12999 8.63001 6.12999 8.75001 6.12999 8.87001C6.12999 8.94001 6.18999 9.01001 6.26999 9.01001H8.92999C8.99999 9.01001 9.06999 8.95001 9.06999 8.87001V4.62001C9.06999 4.47001 9.06999 4.31001 9.06999 4.16001H9.89999C9.94999 4.16001 9.99999 4.13001 10.02 4.08001C10.04 4.03001 10.03 3.97001 9.98999 3.93001" fill="#231815"/>
</g>
<defs>
<clipPath id="clip0_1_182">
<rect width="10" height="9" fill="white"/>
</clipPath>
</defs>
</svg>
