<svg width="9" height="9" viewBox="0 0 9 9" fill="none" xmlns="http://www.w3.org/2000/svg">
<g clip-path="url(#clip0_1_168)">
<path d="M8.33 8.25999V6.51999H3.85C4.44 6.21999 4.96 5.94999 5.4 5.70999C5.84 5.46999 6.23 5.23999 6.55 5.02999C6.87 4.81999 7.13 4.61999 7.34 4.42999C7.55 4.23999 7.72 4.04999 7.84 3.86999C7.96 3.67999 8.05 3.48999 8.1 3.28999C8.15 3.08999 8.17 2.87999 8.17 2.64999C8.17 2.23999 8.07 1.86999 7.88 1.54999C7.69 1.21999 7.41 0.949989 7.04 0.719989C6.67 0.489989 6.23 0.319989 5.7 0.199989C5.17 0.079989 4.57 0.019989 3.9 0.019989C3.18 0.019989 2.5 0.079989 1.86 0.209989C1.22 0.339989 0.620002 0.469989 0.0900017 0.659989V2.57999C0.350002 2.44999 0.630002 2.32999 0.930002 2.21999C1.24 2.10999 1.55 2.02999 1.88 1.94999C2.21 1.87999 2.54 1.81999 2.88 1.77999C3.22 1.73999 3.54 1.71999 3.85 1.71999C4.19 1.71999 4.47 1.73999 4.71 1.77999C4.95 1.81999 5.15 1.86999 5.31 1.93999C5.47 1.99999 5.6 2.07999 5.69 2.15999C5.78 2.23999 5.85 2.32999 5.9 2.41999C5.95 2.50999 5.98 2.58999 5.99 2.67999C6 2.75999 6.01 2.83999 6.01 2.89999C6.01 3.13999 5.89 3.38999 5.65 3.63999C5.41 3.88999 5.04 4.17999 4.54 4.48999C4.04 4.79999 3.42 5.13999 2.66 5.51999C1.9 5.89999 1.01 6.32999 -0.00999832 6.80999V8.24999H8.32L8.33 8.25999Z" fill="#231815"/>
</g>
<defs>
<clipPath id="clip0_1_168">
<rect width="8.33" height="8.26" fill="white"/>
</clipPath>
</defs>
</svg>
