<svg width="9" height="9" viewBox="0 0 9 9" fill="none" xmlns="http://www.w3.org/2000/svg">
<g clip-path="url(#clip0_1_174)">
<path d="M6.74 3.66C6.98 3.54 7.18 3.4 7.33 3.24C7.48 3.08 7.6 2.91 7.67 2.73C7.74 2.54 7.78 2.35 7.78 2.14C7.78 1.75 7.67 1.42 7.45 1.15C7.23 0.88 6.93 0.66 6.55 0.49C6.17 0.32 5.72 0.2 5.22 0.12C4.72 0.04 4.17 0 3.6 0C3.03 0 2.43 0.04 1.84 0.13C1.25 0.21 0.689998 0.34 0.169998 0.52V2.44C0.399998 2.32 0.659998 2.21 0.929998 2.12C1.21 2.03 1.49 1.95 1.79 1.89C2.09 1.83 2.39 1.78 2.69 1.75C3 1.72 3.3 1.7 3.6 1.7C3.92 1.7 4.19 1.71 4.42 1.73C4.65 1.75 4.83 1.79 4.99 1.82C5.14 1.86 5.26 1.9 5.35 1.96C5.44 2.01 5.5 2.06 5.55 2.12C5.6 2.17 5.63 2.23 5.64 2.28C5.65 2.33 5.66 2.38 5.66 2.42C5.66 2.56 5.61 2.67 5.5 2.77C5.39 2.86 5.21 2.94 4.96 3C4.7 3.06 4.36 3.1 3.94 3.13C3.51 3.16 2.98 3.17 2.33 3.17V4.76C3.04 4.76 3.63 4.79 4.1 4.83C4.57 4.87 4.94 4.93 5.21 5.01C5.48 5.09 5.67 5.2 5.78 5.32C5.89 5.44 5.94 5.59 5.94 5.76C5.94 5.86 5.92 5.97 5.87 6.08C5.82 6.19 5.72 6.3 5.56 6.4C5.4 6.5 5.16 6.58 4.85 6.65C4.54 6.71 4.12 6.75 3.6 6.75C3.31 6.75 3.01 6.73 2.69 6.69C2.37 6.65 2.05 6.6 1.73 6.53C1.41 6.46 1.11 6.37 0.809998 6.27C0.509998 6.17 0.249998 6.05 0.00999832 5.92V7.85C0.219998 7.92 0.459998 8 0.699998 8.07C0.949998 8.14 1.22 8.21 1.52 8.27C1.82 8.33 2.14 8.38 2.49 8.41C2.84 8.45 3.23 8.47 3.65 8.47C4.28 8.47 4.86 8.42 5.4 8.32C5.94 8.22 6.41 8.06 6.8 7.85C7.2 7.64 7.51 7.38 7.73 7.06C7.95 6.74 8.07 6.37 8.07 5.95C8.07 5.71 8.03 5.48 7.95 5.28C7.87 5.07 7.74 4.89 7.57 4.72C7.39 4.55 7.17 4.41 6.89 4.28C6.61 4.15 6.27 4.04 5.88 3.95C6.22 3.87 6.51 3.77 6.75 3.64" fill="#231815"/>
</g>
<defs>
<clipPath id="clip0_1_174">
<rect width="8.07" height="8.47" fill="white"/>
</clipPath>
</defs>
</svg>
